<svg width="34" height="38" viewBox="0 0 34 38" fill="none" xmlns="http://www.w3.org/2000/svg">
<path d="M2 8.99992H5.33333M5.33333 8.99992H32M5.33333 8.99992V32.3333C5.33333 33.2173 5.68452 34.0652 6.30964 34.6903C6.93477 35.3154 7.78261 35.6666 8.66667 35.6666H25.3333C26.2174 35.6666 27.0652 35.3154 27.6904 34.6903C28.3155 34.0652 28.6667 33.2173 28.6667 32.3333V8.99992M10.3333 8.99992V5.66659C10.3333 4.78253 10.6845 3.93468 11.3096 3.30956C11.9348 2.68444 12.7826 2.33325 13.6667 2.33325H20.3333C21.2174 2.33325 22.0652 2.68444 22.6904 3.30956C23.3155 3.93468 23.6667 4.78253 23.6667 5.66659V8.99992M13.6667 17.3333V27.3333M20.3333 17.3333V27.3333" stroke="#1E1E1E" stroke-width="4" stroke-linecap="round" stroke-linejoin="round"/>
</svg>
